<svg width="40" height="40" viewBox="0 0 400 259" fill="none" xmlns="http://www.w3.org/2000/svg">
<path d="M160.014 155.308C215.392 78.033 266.199 17.6154 288.5 14.5774C310.221 11.6184 337.86 87.0643 373.42 170.231C374.618 172.925 375.811 175.704 377 178.566C378.645 182.527 340.022 228.022 328.623 241.323C327.166 243.023 324.496 242.654 323.626 240.663L278.359 137.008C277.847 135.835 278.195 134.414 279.19 133.545C320.696 97.3018 337.219 120.736 377 178.566C375.798 175.781 374.604 173.002 373.42 170.231C330.043 72.6924 280.335 85.7495 196.533 220.593C195.276 222.617 192.26 222.642 191.213 220.575L159.746 158.397C159.251 157.419 159.357 156.226 160.014 155.308Z" fill="white"/>
<path d="M377 178.566C339.709 92.1783 310.945 11.5198 288.5 14.5774C266.199 17.6154 215.392 78.033 160.014 155.308C159.357 156.226 159.251 157.419 159.746 158.397L191.213 220.575C192.26 222.642 195.276 222.617 196.533 220.593C282.649 82.0249 332.763 72.064 377 178.566ZM377 178.566C378.645 182.527 340.022 228.023 328.623 241.323C327.166 243.023 324.496 242.654 323.626 240.663L278.359 137.008C277.847 135.835 278.195 134.414 279.19 133.545C320.696 97.3018 337.219 120.736 377 178.566Z" stroke="#EFF1FE" stroke-width="20"/>
<path d="M369.5 178.127C369.5 178.127 328.844 75.0593 283.5 128.007L328.741 232.248L369.5 178.127Z" fill="#636EF9" stroke="#636EF9"/>
<path d="M21.7315 186.627C56.182 100.446 83.6047 26.85 104.584 19.5474C124.956 12.456 162.742 65.3369 217.558 138.192C219.557 140.773 221.587 143.467 223.65 146.276C226.244 149.808 202.947 201.71 195.928 217.141C195.019 219.138 192.313 219.411 190.898 217.673L122.107 133.228C121.252 132.178 121.207 130.675 121.977 129.599C153.169 86.037 170.321 97.6482 223.65 146.276C221.596 143.556 219.566 140.861 217.558 138.192C151.769 53.2536 120.188 92.034 72.8288 239.933C72.1266 242.126 69.2536 242.752 67.6956 240.993L22.2917 189.748C21.5284 188.887 21.3132 187.674 21.7315 186.627Z" fill="white"/>
<path d="M223.65 146.276C165.533 69.2908 125.702 12.1963 104.584 19.5474C83.6047 26.85 56.182 100.446 21.7315 186.627C21.3132 187.674 21.5284 188.887 22.2917 189.748L67.6956 240.993C69.2536 242.752 72.1266 242.126 72.8288 239.933C121.626 87.5413 153.673 50.9982 223.65 146.276ZM223.65 146.276C226.244 149.808 202.947 201.71 195.928 217.141C195.019 219.138 192.313 219.411 190.898 217.673L122.107 133.228C121.252 132.178 121.207 130.675 121.977 129.599C153.169 86.037 170.321 97.6482 223.65 146.276Z" stroke="#EFF1FE" stroke-width="20"/>
<path d="M216.115 147.923C178.208 92.6234 152.727 91.1838 128.022 127.3L192.013 207.938L216.115 147.923Z" fill="#636EF9" stroke="#636EF9"/>
</svg>
